<svg width="129" height="128" viewBox="0 0 129 128" fill="none" xmlns="http://www.w3.org/2000/svg">
<g clip-path="url(#clip0_10002_1112)">
<rect x="0.950195" width="128" height="128" rx="25" fill="white"/>
<rect x="0.950195" width="128" height="128" fill="url(#paint0_linear_10002_1112)"/>
<path opacity="0.2" d="M39.9258 63.2424L57.7383 22.5649" stroke="#1373D9" stroke-width="6"/>
<path opacity="0.2" d="M52.1094 63.2424L69.9219 22.5649" stroke="#1373D9" stroke-width="6"/>
<path opacity="0.2" d="M73.8413 87.6058L87.7344 57.2676" stroke="#1373D9" stroke-width="6"/>
<path d="M106.657 55.9375C108.533 55.9378 110.214 57.1026 110.872 58.8604C111.488 60.5082 111.085 62.3534 109.866 63.5928L109.611 63.832L56.2495 110.267C50.8796 114.939 42.9307 108.993 45.897 102.522L60.7827 70.0508L64.895 71.9316L68.9673 73.7949L58.6909 96.2109L94.6304 64.9375H81.8062L85.9233 55.9375H106.657ZM81.52 16.75C87.7792 16.7503 91.9702 23.129 89.5718 28.8418L89.4526 29.1133L80.0415 49.6387L75.9497 47.7666L71.8579 45.8936L81.0933 25.75H52.4497C49.9871 25.7502 47.7691 27.2394 46.8364 29.5186L36.0288 55.9375H58.5005L54.3833 64.9375H29.3257C27.8263 64.9375 26.4251 64.1901 25.5894 62.9453C24.7538 61.7005 24.593 60.121 25.1606 58.7334L38.5063 26.1113C40.8226 20.4495 46.3324 16.7502 52.4497 16.75H81.52Z" fill="#1373D9"/>
<path d="M78.4703 42.27L59.2422 84.2113" stroke="#1373D9" stroke-width="9"/>
</g>
<defs>
<linearGradient id="paint0_linear_10002_1112" x1="64.9502" y1="-8.5" x2="81.1731" y2="313.683" gradientUnits="userSpaceOnUse">
<stop stop-color="white"/>
<stop offset="0.9" stop-color="#BEE1FE"/>
</linearGradient>
<clipPath id="clip0_10002_1112">
<rect x="0.950195" width="128" height="128" rx="25" fill="white"/>
</clipPath>
</defs>
</svg>
