<svg width="208" height="36" viewBox="0 0 208 36" fill="none" xmlns="http://www.w3.org/2000/svg">
    <path d="M175.235 16.493a2.243 2.243 0 0 0-2.245-2.242h-4.359v11.986h-2.686V13.382c0-1.002.813-1.814 1.816-1.814h5.229a4.928 4.928 0 0 1 4.932 4.925 4.928 4.928 0 0 1-4.932 4.925h-3.428v-2.683h3.428a2.243 2.243 0 0 0 2.245-2.242zM186.795 11.546a4.955 4.955 0 0 1 4.958 4.952 4.954 4.954 0 0 1-3.353 4.686l3.528 5.048-.145.1h-3.061l-3.577-5.118c-.721-1.032.018-2.448 1.278-2.448h.372a2.27 2.27 0 0 0 2.271-2.268 2.27 2.27 0 0 0-2.271-2.269h-4.347v12.037h-2.686V13.36c0-1.002.813-1.814 1.816-1.814h5.217zM192.633 19.151c0-4.234 3.438-7.667 7.678-7.667 1.463 0 2.834.41 3.999 1.121l.112.07.058.038c.58.41.742 1.208.356 1.814a1.344 1.344 0 0 1-1.795.449l-.059-.036-.146-.09a4.969 4.969 0 0 0-2.525-.683 4.987 4.987 0 0 0-4.991 4.984 4.987 4.987 0 0 0 4.991 4.985 4.988 4.988 0 0 0 4.623-6.868l-.049-.115-.026-.064a1.344 1.344 0 0 1 2.457-1.076l.03.063.075.178c.366.896.568 1.874.568 2.897 0 4.235-3.438 7.668-7.678 7.668s-7.678-3.433-7.678-7.668z" fill="#1373D9"/>
    <path d="M7.078 26.162V10.34H.995V7.193h15.593v3.148h-6.082v15.82H7.078zM26.81 11.556c3.123 0 5.308 2.291 5.308 5.522v9.084h-3.263V17.74c0-1.932-1.244-3.313-3.013-3.313-1.908 0-3.484 1.38-3.484 3.092v8.643h-3.373v-19.3h3.373v6.985c.857-1.38 2.544-2.291 4.451-2.291zm18.23.33h3.374v14.276h-3.373v-1.906c-.885 1.326-2.544 2.237-4.424 2.237-3.124 0-5.308-2.292-5.308-5.522v-9.084h3.263v8.421c0 1.933 1.244 3.313 3.013 3.313 1.77 0 3.235-1.187 3.456-2.705v-9.03zm14.473-.33c3.124 0 5.308 2.291 5.308 5.522v9.084h-3.263V17.74c0-1.932-1.243-3.313-3.013-3.313-1.77 0-3.235 1.187-3.456 2.706v9.029h-3.373V11.886h3.373v1.905c.885-1.325 2.544-2.236 4.424-2.236zm19.42-4.694h3.373v19.3h-3.373v-2.21c-1.133 1.602-2.847 2.54-4.949 2.54-3.787 0-6.552-3.092-6.552-7.482 0-4.362 2.765-7.455 6.552-7.455 2.102 0 3.816.94 4.95 2.54V6.863zm-4.036 16.76c2.377 0 4.036-1.933 4.036-4.612 0-2.678-1.659-4.583-4.036-4.583-2.406 0-4.12 1.905-4.12 4.583 0 2.679 1.714 4.611 4.12 4.611zm17.454-.111c1.327 0 2.903-.608 3.705-1.436l2.129 2.209c-1.244 1.325-3.733 2.209-5.806 2.209-4.092 0-7.465-3.12-7.465-7.51 0-4.28 3.207-7.428 7.271-7.428 4.424 0 6.995 3.341 6.995 8.615H88.4c.415 1.96 1.907 3.34 3.953 3.34zm-.027-8.974c-1.88 0-3.4 1.188-3.898 3.065h7.52c-.388-1.795-1.604-3.065-3.622-3.065zm12.821.11c.912-1.904 2.765-3.091 5.115-3.091v2.871c-3.069 0-5.115 1.822-5.115 4.528v7.207h-3.373V11.886h3.373v2.76zm15.631-3.091c3.788 0 6.553 3.092 6.553 7.454 0 4.39-2.765 7.483-6.553 7.483-2.129 0-3.843-.966-4.976-2.595v2.264h-3.373v-19.3h3.373v7.289c1.133-1.63 2.847-2.595 4.976-2.595zm-.912 12.065c2.405 0 4.119-1.932 4.119-4.61 0-2.679-1.714-4.584-4.119-4.584-2.378 0-4.037 1.905-4.037 4.583 0 2.679 1.659 4.611 4.037 4.611zM131.68 9.733c-1.078 0-1.935-.911-1.935-1.933 0-1.021.857-1.905 1.935-1.905 1.05 0 1.907.884 1.907 1.905 0 1.022-.857 1.933-1.907 1.933zm-1.714 16.428V11.887h3.373V26.16h-3.373zm10.142-11.513c.912-1.905 2.764-3.092 5.114-3.092v2.871c-3.069 0-5.114 1.822-5.114 4.528v7.207h-3.373V11.886h3.373v2.76zm18.064-7.786h3.373v19.3h-3.373v-2.21c-1.134 1.602-2.848 2.54-4.949 2.54-3.788 0-6.552-3.092-6.552-7.482 0-4.362 2.764-7.455 6.552-7.455 2.101 0 3.815.94 4.949 2.54V6.863zm-4.037 16.76c2.378 0 4.037-1.933 4.037-4.612 0-2.678-1.659-4.583-4.037-4.583-2.405 0-4.119 1.905-4.119 4.583 0 2.679 1.714 4.611 4.119 4.611z" fill="#fff"/>
</svg>
