<svg width="208" height="36" viewBox="0 0 208 36" fill="none" xmlns="http://www.w3.org/2000/svg">
    <g clip-path="url(#wjrnzcv7ja)">
        <path d="M167.068 26.237V13.382c0-.26.212-.472.473-.472h5.222a3.583 3.583 0 0 1 0 7.166h-3.424" stroke="#1373D9" stroke-width="2.683"/>
        <path d="M186.55 11.546a4.952 4.952 0 0 1 1.603 9.638l3.523 5.048-.145.1h-3.057l-3.572-5.118c-.721-1.032.018-2.448 1.276-2.448h.372a2.269 2.269 0 0 0 0-4.537h-4.341v12.037h-2.683V13.36c0-1.002.812-1.814 1.813-1.814h5.211z" fill="#1373D9"/>
        <path d="M203.435 13.808a6.326 6.326 0 1 0 2.409 2.807" stroke="#1373D9" stroke-width="2.683" stroke-linecap="round"/>
        <path d="M7.068 26.162V10.34H.994V7.193h15.572v3.148h-6.074v15.82H7.068zm19.707-14.606c3.12 0 5.301 2.291 5.301 5.522v9.084h-3.258V17.74c0-1.932-1.242-3.313-3.01-3.313-1.904 0-3.478 1.38-3.478 3.092v8.643H18.96v-19.3h3.369v6.985c.856-1.38 2.54-2.291 4.445-2.291zm18.208.33h3.368v14.276h-3.368v-1.906c-.884 1.326-2.54 2.237-4.418 2.237-3.12 0-5.301-2.292-5.301-5.522v-9.084h3.258v8.421c0 1.933 1.242 3.313 3.01 3.313 1.767 0 3.23-1.187 3.45-2.705v-9.03zm14.453-.33c3.12 0 5.3 2.291 5.3 5.522v9.084H61.48V17.74c0-1.932-1.243-3.313-3.01-3.313-1.767 0-3.23 1.187-3.451 2.706v9.029h-3.369V11.886h3.369v1.905c.883-1.325 2.54-2.236 4.417-2.236zM78.83 6.862H82.2v19.3H78.83v-2.21c-1.132 1.602-2.843 2.54-4.942 2.54-3.783 0-6.544-3.092-6.544-7.482 0-4.362 2.761-7.455 6.544-7.455 2.099 0 3.81.94 4.942 2.54V6.863zm-4.03 16.76c2.374 0 4.03-1.933 4.03-4.612 0-2.678-1.656-4.583-4.03-4.583-2.403 0-4.115 1.905-4.115 4.583 0 2.679 1.712 4.611 4.114 4.611zm17.431-.111c1.325 0 2.9-.608 3.7-1.436l2.126 2.209c-1.243 1.325-3.728 2.209-5.798 2.209-4.087 0-7.455-3.12-7.455-7.51 0-4.28 3.203-7.428 7.261-7.428 4.418 0 6.986 3.341 6.986 8.615H88.283c.414 1.96 1.905 3.34 3.948 3.34zm-.028-8.974c-1.877 0-3.396 1.188-3.893 3.065h7.51c-.386-1.795-1.601-3.065-3.617-3.065zm12.805.11c.911-1.904 2.761-3.091 5.108-3.091v2.871c-3.065 0-5.108 1.822-5.108 4.528v7.207h-3.369V11.886h3.369v2.76zm15.611-3.091c3.782 0 6.543 3.092 6.543 7.454 0 4.39-2.761 7.483-6.543 7.483-2.126 0-3.838-.966-4.97-2.595v2.264h-3.369v-19.3h3.369v7.289c1.132-1.63 2.844-2.595 4.97-2.595zm-.911 12.065c2.402 0 4.113-1.932 4.113-4.61 0-2.679-1.711-4.584-4.113-4.584-2.375 0-4.032 1.905-4.032 4.583 0 2.679 1.657 4.611 4.032 4.611zm11.799-13.888c-1.077 0-1.933-.911-1.933-1.933 0-1.021.856-1.905 1.933-1.905 1.049 0 1.905.884 1.905 1.905 0 1.022-.856 1.933-1.905 1.933zm-1.712 16.428V11.887h3.368V26.16h-3.368zm10.128-11.513c.912-1.905 2.762-3.092 5.108-3.092v2.871c-3.064 0-5.108 1.822-5.108 4.528v7.207h-3.368V11.886h3.368v2.76zm18.041-7.786h3.368v19.3h-3.368v-2.21c-1.132 1.602-2.844 2.54-4.942 2.54-3.783 0-6.544-3.092-6.544-7.482 0-4.362 2.761-7.455 6.544-7.455 2.098 0 3.81.94 4.942 2.54V6.863zm-4.031 16.76c2.374 0 4.031-1.933 4.031-4.612 0-2.678-1.657-4.583-4.031-4.583-2.402 0-4.114 1.905-4.114 4.583 0 2.679 1.712 4.611 4.114 4.611z" fill="#2A284A"/>
    </g>
    <defs>
        <clipPath id="wjrnzcv7ja">
            <path fill="#fff" d="M0 0h207.727v36H0z"/>
        </clipPath>
    </defs>
</svg>
