<svg width="65" height="64" viewBox="0 0 65 64" fill="none" xmlns="http://www.w3.org/2000/svg">
<mask id="mask0_2463_1107" style="mask-type:luminance" maskUnits="userSpaceOnUse" x="0" y="0" width="65" height="64">
<path d="M52.1512 0H12.8489C5.89178 0 0.251953 5.59644 0.251953 12.5V51.5C0.251953 58.4036 5.89178 64 12.8489 64H52.1512C59.1083 64 64.7481 58.4036 64.7481 51.5V12.5C64.7481 5.59644 59.1083 0 52.1512 0Z" fill="white"/>
</mask>
<g mask="url(#mask0_2463_1107)">
<path d="M52.1512 0H12.8489C5.89178 0 0.251953 5.59644 0.251953 12.5V51.5C0.251953 58.4036 5.89178 64 12.8489 64H52.1512C59.1083 64 64.7481 58.4036 64.7481 51.5V12.5C64.7481 5.59644 59.1083 0 52.1512 0Z" fill="white"/>
<path d="M64.7481 0H0.251953V64H64.7481V0Z" fill="url(#paint0_linear_2463_1107)"/>
<mask id="mask1_2463_1107" style="mask-type:luminance" maskUnits="userSpaceOnUse" x="8" y="8" width="49" height="48">
<path d="M56.7033 8H8.33118V56H56.7033V8Z" fill="white"/>
</mask>
<g mask="url(#mask1_2463_1107)">
<path opacity="0.2" d="M18.9125 15.5H46.1218V11H49.1451V15.5H55.1916V18.5H49.1451V45.5H55.1916V48.5H49.1451V53H46.1218V48.5H18.9125V53H15.8893V48.5H9.84277V45.5H15.8893V24.8486H18.9125V45.5H46.1218V18.5H9.84277V15.5H15.8893V11H18.9125V15.5Z" fill="#1373D9"/>
<path d="M17.4009 8.75C18.6532 8.75 19.6684 9.75735 19.6684 11V14.7944H32.5393C42.1277 14.7944 49.9008 22.5074 49.9009 32.0219C49.9009 41.5387 42.1147 49.2499 32.5285 49.25C22.93 49.25 15.1335 41.5291 15.1335 32V23H19.6684V32C19.6684 39.0394 25.4301 44.75 32.5285 44.75C39.6145 44.7499 45.366 39.0492 45.366 32.0219C45.3659 24.9926 39.6232 19.2945 32.5393 19.2945H11.3544L11.2378 19.2915C10.0398 19.2313 9.08703 18.2482 9.08698 17.0445C9.08698 15.8406 10.0397 14.8576 11.2378 14.7973L11.3544 14.7944H15.1335V11C15.1335 9.75735 16.1486 8.75 17.4009 8.75ZM36.0271 26.1074C36.7688 25.1719 38.1276 24.9681 39.1178 25.6635C40.108 26.359 40.3661 27.6984 39.7235 28.7036L39.6586 28.7998L33.6834 37.1777C32.7077 38.5455 30.792 38.8549 29.4295 37.8647L25.5087 35.0151L25.4162 34.9444C24.4857 34.1933 24.3028 32.8417 25.0196 31.8706C25.7364 30.8995 27.0902 30.6649 28.0926 31.3188L28.1885 31.3848L30.8693 33.3335L35.9572 26.2002L36.0271 26.1074Z" fill="url(#paint1_linear_2463_1107)"/>
</g>
</g>
<defs>
<linearGradient id="paint0_linear_2463_1107" x1="32.5" y1="-4.25" x2="40.5494" y2="156.848" gradientUnits="userSpaceOnUse">
<stop stop-color="white"/>
<stop offset="0.9" stop-color="#BEE1FE"/>
</linearGradient>
<linearGradient id="paint1_linear_2463_1107" x1="9.08698" y1="8.75" x2="29.9674" y2="57.7449" gradientUnits="userSpaceOnUse">
<stop stop-color="#6AA9E5"/>
<stop offset="0.994972" stop-color="#0D5BB2"/>
</linearGradient>
</defs>
</svg>
