<svg width="32" height="32" viewBox="0 0 32 32" fill="none" xmlns="http://www.w3.org/2000/svg">
<path d="M24 2H7.99999C4.68629 2 2 4.6863 2 8V24C2 27.3137 4.68629 30 7.99999 30H24C27.3137 30 30 27.3137 30 24V8C30 4.6863 27.3137 2 24 2Z" fill="#0A84FF"/>
<path d="M24 4H7.99999C5.79086 4 4 5.79086 4 8V24C4 26.2091 5.79086 28 7.99999 28H24C26.2091 28 28 26.2091 28 24V8C28 5.79086 26.2091 4 24 4Z" fill="url(#paint0_linear_2442_7488)"/>
<path opacity="0.15" d="M23 6H8.99999C7.34314 6 6 7.34315 6 9V15C6 16.6569 7.34314 18 8.99999 18H23C24.6569 18 26 16.6569 26 15V9C26 7.34315 24.6569 6 23 6Z" fill="black"/>
<path d="M22 8H9.99999C8.89543 8 8 8.89543 8 10V12C8 13.1046 8.89543 14 9.99999 14H22C23.1046 14 24 13.1046 24 12V10C24 8.89543 23.1046 8 22 8Z" fill="#F9F9FA"/>
<path opacity="0.15" d="M25 10H6.99999C5.34314 10 4 11.3431 4 13V21C4 22.6569 5.34314 24 6.99999 24H25C26.6569 24 28 22.6569 28 21V13C28 11.3431 26.6569 10 25 10Z" fill="black"/>
<path d="M8 12C6.892 12 6 12.892 6 14V18C6 19.108 6.892 20 8 20H10.3594C10.772 21.1672 11.5356 22.1782 12.5455 22.8943C13.5554 23.6104 14.762 23.9966 16 24C17.238 23.9966 18.4446 23.6104 19.4545 22.8943C20.4644 22.1782 21.228 21.1672 21.6406 20H24C25.108 20 26 19.108 26 18V14C26 12.892 25.108 12 24 12H16H8Z" fill="#F9F9FA"/>
<path opacity="0.15" d="M30 17H21C21 19 19 20.9991 16 20.9991C13 20.9991 11 19 11 17C9 17 4.62241 17.016 2 17" stroke="black" stroke-width="2" stroke-linejoin="round"/>
<path d="M2 18V19L1.99219 20C1.9944 20 1.99778 20 2 20V24C2 27.324 4.676 30 8 30H24C27.324 30 30 27.324 30 24V20V18H21C20.7348 18 20.4805 18.1054 20.2929 18.2929C20.1054 18.4805 20 18.7348 20 19C20 20.3333 18.5557 22 16 22C13.4443 22 12 20.3333 12 19C12 18.7348 11.8946 18.4805 11.7071 18.2929C11.5195 18.1054 11.2652 18 11 18H8H2.00781H2Z" fill="url(#paint1_linear_2442_7488)"/>
<path opacity="0.15" d="M30 19H21C21 21 19 22.9991 16 22.9991C13 22.9991 11 21 11 19C9 19 4.62241 19.016 2 19" stroke="white" stroke-linejoin="round"/>
<path opacity="0.15" d="M2 22V24C2 27.324 4.676 30 8 30H24C27.324 30 30 27.324 30 24V22C30 25.324 27.324 28 24 28H8C4.676 28 2 25.324 2 22Z" fill="black"/>
<defs>
<linearGradient id="paint0_linear_2442_7488" x1="16" y1="4" x2="16" y2="22" gradientUnits="userSpaceOnUse">
<stop stop-color="#003EAA"/>
<stop offset="1" stop-color="#0A84FF"/>
</linearGradient>
<linearGradient id="paint1_linear_2442_7488" x1="16" y1="18" x2="16" y2="30" gradientUnits="userSpaceOnUse">
<stop stop-color="#0A84FF"/>
<stop offset="1" stop-color="#45A1FF"/>
</linearGradient>
</defs>
</svg>
