<svg width="32" height="32" viewBox="0 0 32 32" fill="none" xmlns="http://www.w3.org/2000/svg">
<path d="M24 2H7.99999C4.68629 2 2 4.6863 2 8V24C2 27.3137 4.68629 30 7.99999 30H24C27.3137 30 30 27.3137 30 24V8C30 4.6863 27.3137 2 24 2Z" fill="#0A84FF"/>
<path d="M24 4H7.99999C5.79086 4 4 5.79086 4 8V24C4 26.2091 5.79086 28 7.99999 28H24C26.2091 28 28 26.2091 28 24V8C28 5.79086 26.2091 4 24 4Z" fill="url(#paint0_linear_2442_7525)"/>
<path opacity="0.15" d="M30 17H21C21 19 19 20.9991 16 20.9991C13 20.9991 11 19 11 17C9 17 4.62241 17.016 2 17" stroke="black" stroke-width="2" stroke-linejoin="round"/>
<path d="M2 18V19L1.99219 20C1.9944 20 1.99778 20 2 20V24C2 27.324 4.676 30 8 30H24C27.324 30 30 27.324 30 24V20V18H21C20.7348 18 20.4805 18.1054 20.2929 18.2929C20.1054 18.4805 20 18.7348 20 19C20 20.3333 18.5557 22 16 22C13.4443 22 12 20.3333 12 19C12 18.7348 11.8946 18.4805 11.7071 18.2929C11.5195 18.1054 11.2652 18 11 18H8H2.00781H2Z" fill="url(#paint1_linear_2442_7525)"/>
<path opacity="0.15" d="M30 19H21C21 21 19 22.9991 16 22.9991C13 22.9991 11 21 11 19C9 19 4.62241 19.016 2 19" stroke="white" stroke-linejoin="round"/>
<path opacity="0.15" d="M2 22V24C2 27.324 4.676 30 8 30H24C27.324 30 30 27.324 30 24V22C30 25.324 27.324 28 24 28H8C4.676 28 2 25.324 2 22Z" fill="black"/>
<g opacity="0.15">
<path opacity="0.15" d="M16.0001 3.99976C15.7029 3.99928 15.4209 4.13095 15.2305 4.35913L10.2305 10.3591C9.68693 11.011 10.1513 12.001 11.0001 11.9998H14.0001V16.9998C14.0001 17.552 14.4478 17.9997 15.0001 17.9998H17.0001C17.5523 17.9997 18 17.552 18.0001 16.9998V11.9998H21.0001C21.8488 12.001 22.3132 11.011 21.7696 10.3591L16.7696 4.35913C16.5792 4.13095 16.2972 3.99928 16.0001 3.99976Z" fill="black"/>
<path opacity="0.15" d="M16 1.99976C15.1113 1.99942 14.2648 2.39534 13.6953 3.07788L8.69532 9.07788C7.15588 10.9239 8.59739 13.9998 11 13.9998H12V16.9998C12.0002 18.6328 13.367 19.9996 15 19.9998H17C18.633 19.9996 19.9998 18.6328 20 16.9998V13.9998H21C23.4026 13.9998 24.8441 10.9239 23.3047 9.07788L18.3047 3.07788C17.7352 2.39534 16.8887 1.99942 16 1.99976Z" fill="black"/>
</g>
<path d="M15.9999 3.99976C15.7028 3.99928 15.4208 4.13095 15.2304 4.35913L10.2304 10.3591C9.68681 11.011 10.1512 12.001 10.9999 11.9998H13.9999V16.9998C14 17.552 14.4477 17.9997 14.9999 17.9998H16.9999C17.5522 17.9997 17.9999 17.552 17.9999 16.9998V11.9998H20.9999C21.8487 12.001 22.3131 11.011 21.7695 10.3591L16.7695 4.35913C16.5791 4.13095 16.2971 3.99928 15.9999 3.99976Z" fill="#F9F9FA"/>
<path opacity="0.3" d="M10.5976 9.91797L10.2304 10.3594C9.68681 11.0112 10.1512 12.0012 10.9999 12H13.9999V10H10.9999C10.8532 10.0002 10.7181 9.97011 10.5976 9.91797ZM21.4023 9.91797C21.2818 9.97011 21.1466 10.0002 20.9999 10H17.9999V12H20.9999C21.8487 12.0012 22.3131 11.0112 21.7695 10.3594L21.4023 9.91797ZM13.9999 15V17C14 17.5523 14.4477 17.9999 14.9999 18H16.9999C17.5522 17.9999 17.9999 17.5523 17.9999 17V15C17.9999 15.5523 17.5522 15.9999 16.9999 16H14.9999C14.4477 15.9999 14 15.5523 13.9999 15Z" fill="#737373"/>
<defs>
<linearGradient id="paint0_linear_2442_7525" x1="16" y1="4" x2="16" y2="22" gradientUnits="userSpaceOnUse">
<stop stop-color="#003EAA"/>
<stop offset="1" stop-color="#0A84FF"/>
</linearGradient>
<linearGradient id="paint1_linear_2442_7525" x1="16" y1="18" x2="16" y2="30" gradientUnits="userSpaceOnUse">
<stop stop-color="#0A84FF"/>
<stop offset="1" stop-color="#45A1FF"/>
</linearGradient>
</defs>
</svg>
