<svg width="82" height="36" viewBox="0 0 82 36" fill="none" xmlns="http://www.w3.org/2000/svg">
<g clip-path="url(#clip0_3207_266)">
<path d="M45.109 24.5173V10.2556H47.7041L52.3956 18.9538L57.1079 10.2556H59.6822V24.5173H57.1079V14.9888L52.3956 23.6868L47.7041 14.9888V24.5173H45.109ZM67.0159 13.5356C69.8599 13.5356 71.6246 15.3417 71.6246 18.0611V24.5173H69.1542V23.2303C68.3653 24.2268 67.0159 24.7665 65.7705 24.7665C63.487 24.7665 61.764 23.4171 61.764 21.3412C61.764 19.2237 63.7359 17.7705 66.1442 17.7705C67.1199 17.7705 68.1785 17.9781 69.1542 18.3518V18.0611C69.1542 16.8156 68.4693 15.6115 66.5178 15.6115C65.5005 15.6115 64.5248 15.9644 63.6115 16.4211L62.7397 14.6566C64.2551 13.9093 65.6666 13.5356 67.0159 13.5356ZM66.331 22.9187C67.5556 22.9187 68.8637 22.2961 69.1542 21.1544V19.9502C68.3653 19.6804 67.4728 19.535 66.5178 19.535C65.2516 19.535 64.2343 20.2409 64.2343 21.258C64.2343 22.2753 65.1269 22.9187 66.331 22.9187ZM75.2388 12.1655C74.4291 12.1655 73.7858 11.4804 73.7858 10.7123C73.7858 9.94423 74.4291 9.27994 75.2388 9.27994C76.0277 9.27994 76.6711 9.94423 76.6711 10.7123C76.6711 11.4804 76.0277 12.1655 75.2388 12.1655ZM73.9518 24.5173V13.7847H76.4843V24.5173H73.9518ZM78.8683 24.5173V10.0065H81.401V24.5173H78.8683Z" fill="white"/>
<path d="M15.6907 6.15959H15.6944C16.8865 2.02061 22.0813 0 27.375 0C31.0325 0 34.3168 1.15048 36.5676 2.97614C35.1732 3.0448 33.8466 3.31575 32.6325 3.75312C34.4512 4.42417 36.0138 5.45738 37.172 6.73545C36.4036 6.60362 35.6067 6.53422 34.7895 6.53422C34.7015 6.53422 34.6135 6.53508 34.5259 6.53669C36.63 9.5665 37.8621 13.2396 37.8621 17.1987C37.8621 27.5824 29.3864 36 18.9311 36C8.63691 36 0 27.4398 0 17.1987C0 15.5812 0.216776 13.9107 0.636861 12.3449C0.746748 12.016 0.900456 11.7006 1.10455 11.5852C1.36001 11.4408 1.59218 11.8713 1.6298 12.0116C1.90723 13.046 2.28106 14.0466 2.74211 15.0049C2.70187 12.8581 3.62505 10.9032 4.89549 9.21174C5.74219 8.08431 6.52712 7.03917 6.88973 4.02408C6.91407 3.82167 7.10728 3.67598 7.30232 3.73937C10.059 4.63571 11.5881 9.57284 11.3586 13.3847C12.8815 13.6008 12.819 11.6424 12.819 11.6424C12.3322 10.1568 12.6568 7.3951 15.6857 6.15959H15.6907Z" fill="url(#paint0_linear_3207_266)"/>
<path opacity="0.9" d="M37.2428 12.1035C37.7032 22.5791 29.1435 31.6105 18.7055 31.6105C8.93453 31.6105 0.927416 24.0123 0.203181 14.3685C0.0755733 15.2595 0.00649073 16.1694 0 17.0943C0.0741566 27.4142 8.69026 36 18.9308 36C29.3863 36 37.8621 27.4728 37.8621 16.9538C37.8621 15.2776 37.6469 13.6521 37.2428 12.1035Z" fill="url(#paint1_radial_3207_266)"/>
<path d="M18.7848 7.42615C18.5836 7.07258 17.6554 6.54979 17.25 6.45867C18.7848 1.57158 26.6061 0.0711593 31.393 0.935851C33.3849 1.29568 35.866 2.37494 36.6206 2.93512C34.4024 1.13462 31.1656 0 27.5611 0C22.3439 0 17.2243 1.99276 16.0494 6.07469H16.0458H16.0409C13.0558 7.29318 12.7363 10.0176 13.216 11.4828C13.6764 9.73513 15.868 7.58742 18.7848 7.42615Z" fill="url(#paint2_radial_3207_266)"/>
<path d="M24.0396 3.74675C19.6575 4.68781 18.2253 4.99542 16.7585 6.51726C18.4058 1.75741 22.6106 0.792982 27.6206 2.9624C26.2417 3.27378 25.0607 3.52748 24.0396 3.74675Z" fill="url(#paint3_linear_3207_266)"/>
<path d="M1.06886 11.469C-0.0910974 16.1988 0.805228 21.7582 6.07519 26.4237C4.50628 24.7152 2.59097 18.406 6.8179 13.8983C7.10274 13.5946 7.59258 13.8181 7.60803 14.2333C7.60803 26.9095 17.2171 28.4155 22.8339 27.8239C20.1226 27.6722 12.6188 24.9729 19.2886 23.7355C22.775 23.0886 28.2413 22.0744 28.2413 17.1902C28.2413 9.27128 22.0932 6.95609 18.3654 7.30054C15.8139 7.53634 13.5431 9.14865 12.8439 11.3412C13.1122 12.2059 12.0981 13.3494 11.3843 13.2477C11.6134 9.43103 10.0866 4.32625 7.3341 3.42877C7.13935 3.3653 6.94644 3.51117 6.92214 3.71384C6.56007 6.73277 5.77632 7.77924 4.93089 8.90811C3.66236 10.6017 2.74057 12.5591 2.78075 14.7087C2.32039 13.7491 1.94713 12.7473 1.67011 11.7116C1.63901 11.5953 1.47022 11.2714 1.26588 11.256C1.15527 11.2477 1.09673 11.3554 1.06886 11.469Z" fill="url(#paint4_radial_3207_266)"/>
<path d="M18.3104 25.8624C24.1144 28.7498 33.4751 23.886 31.3462 14.2758C28.6714 21.1312 24.3853 26.1235 18.3104 25.8624Z" fill="url(#paint5_linear_3207_266)"/>
<path d="M6.87207 13.7985C6.96576 13.6813 7.08511 13.6411 7.19793 13.6593C3.92907 18.3176 6.56553 26.4995 8.37511 28.5092C8.47617 28.8439 6.65856 27.1035 6.40791 26.696C5.0316 25.3315 3.05899 18.5694 6.87207 13.7985Z" fill="url(#paint6_linear_3207_266)"/>
<path d="M19.0863 8.68973C24.1426 8.68973 28.2415 12.7191 28.2415 17.6897C28.2415 19.6314 27.616 21.4293 26.5522 22.8997C24.1273 25.5157 21.163 25.9609 19.2912 25.8853C18.9657 25.8722 18.7822 26.2717 19.0515 26.4518C19.1814 26.5387 19.3083 26.6151 19.4331 26.6833C19.318 26.6876 19.2024 26.6897 19.0863 26.6897C14.03 26.6897 9.93115 22.6603 9.93115 17.6897C9.93115 12.7191 14.03 8.68973 19.0863 8.68973Z" fill="url(#paint7_linear_3207_266)"/>
<path d="M20.4178 5.52888C21.507 5.30507 21.4117 4.60138 21.4117 4.60138C21.4117 4.60138 20.8667 4.183 19.7875 4.41484C18.7772 4.63194 18.6207 5.10132 18.6207 5.10132C18.6207 5.10132 19.1726 5.78479 20.4178 5.52888Z" fill="white"/>
<path opacity="0.2" d="M18.6206 12.6044L16.3625 17.6897L15.2068 17.1885L17.4648 12.1035L18.6206 12.6044Z" fill="#1373D9"/>
<path opacity="0.2" d="M20.1723 12.6044L17.9143 17.6897L16.7585 17.1885L19.0164 12.1035L20.1723 12.6044Z" fill="#1373D9"/>
<path opacity="0.2" d="M22.6551 17.0096L20.7757 21.1035L19.5516 20.5422L21.431 16.4483L22.6551 17.0096Z" fill="#1373D9"/>
<path d="M21.1823 11.4828C21.9891 11.4828 22.5292 12.383 22.22 13.1893L22.2047 13.2276L21.3739 15.2116L21.3741 15.2117L19.0565 20.7477L19.0563 20.7476L18.6376 21.7476L22.5678 18.0026H21.1836L21.7464 16.6551H24.2122C24.4688 16.6551 24.6985 16.8296 24.7885 17.0928C24.8784 17.356 24.8096 17.6527 24.6161 17.8372L18.1842 23.9662C17.4778 24.6393 16.432 23.7827 16.8223 22.8504L18.6166 18.5645L19.9515 15.3762H19.9514L21.0174 12.8303H17.6784C17.4194 12.8303 17.1854 12.9964 17.0791 13.2531L17.0692 13.2781L15.8075 16.6551H18.441L17.878 18.0026H14.8911C14.6861 18.0026 14.4945 17.8909 14.3802 17.7045C14.266 17.5182 14.2439 17.2816 14.3216 17.0739L15.9303 12.768L15.9586 12.6959C16.2639 11.9593 16.9354 11.4828 17.6784 11.4828H21.1823Z" fill="url(#paint8_linear_3207_266)"/>
</g>
<defs>
<linearGradient id="paint0_linear_3207_266" x1="6.57083" y1="6.19698" x2="33.0871" y2="31.1013" gradientUnits="userSpaceOnUse">
<stop stop-color="#1B91F3"/>
<stop offset="1" stop-color="#0B68CB"/>
</linearGradient>
<radialGradient id="paint1_radial_3207_266" cx="0" cy="0" r="1" gradientTransform="matrix(6.37866 14.7716 -14.0654 6.14768 6.52128 14.4262)" gradientUnits="userSpaceOnUse">
<stop offset="0.525579" stop-color="#0B4186" stop-opacity="0"/>
<stop offset="1" stop-color="#0B4186" stop-opacity="0.45"/>
</radialGradient>
<radialGradient id="paint2_radial_3207_266" cx="0" cy="0" r="1" gradientTransform="matrix(-2.07618 -2.6416 4.39828 -3.41441 19.7189 8.06135)" gradientUnits="userSpaceOnUse">
<stop stop-color="#A29CF6" stop-opacity="0"/>
<stop offset="1" stop-color="#A39BF6"/>
</radialGradient>
<linearGradient id="paint3_linear_3207_266" x1="13.7605" y1="13.2808" x2="24.6222" y2="2.20296" gradientUnits="userSpaceOnUse">
<stop stop-color="#0F5DB0"/>
<stop offset="1" stop-color="#0F5DB0" stop-opacity="0"/>
</linearGradient>
<radialGradient id="paint4_radial_3207_266" cx="0" cy="0" r="1" gradientTransform="matrix(10.8285 -22.3706 27.7476 13.3216 11.8164 27.1622)" gradientUnits="userSpaceOnUse">
<stop offset="0.0160882" stop-color="#094188"/>
<stop offset="0.967387" stop-color="#0B4186" stop-opacity="0"/>
</radialGradient>
<linearGradient id="paint5_linear_3207_266" x1="30.8341" y1="19.1381" x2="29.7152" y2="27.9424" gradientUnits="userSpaceOnUse">
<stop stop-color="#7B8BE9" stop-opacity="0"/>
<stop offset="1" stop-color="#7B8BE9"/>
</linearGradient>
<linearGradient id="paint6_linear_3207_266" x1="4.65833" y1="13.6297" x2="7.66289" y2="25.866" gradientUnits="userSpaceOnUse">
<stop offset="0.104632" stop-color="#C59FF9"/>
<stop offset="1" stop-color="#C59FF9" stop-opacity="0"/>
</linearGradient>
<linearGradient id="paint7_linear_3207_266" x1="20.3579" y1="11.7897" x2="20.8986" y2="32.7902" gradientUnits="userSpaceOnUse">
<stop stop-color="white"/>
<stop offset="0.81088" stop-color="#BEE1FE"/>
<stop offset="1" stop-color="#96CEFD"/>
</linearGradient>
<linearGradient id="paint8_linear_3207_266" x1="14.2758" y1="11.4828" x2="21.7036" y2="25.8249" gradientUnits="userSpaceOnUse">
<stop stop-color="#6AA9E5"/>
<stop offset="0.994972" stop-color="#0D5BB2"/>
</linearGradient>
<clipPath id="clip0_3207_266">
<rect width="82" height="36" fill="white"/>
</clipPath>
</defs>
</svg>
