<svg width="66" height="64" viewBox="0 0 66 64" fill="none" xmlns="http://www.w3.org/2000/svg">
<mask id="mask0_2601_1740" style="mask-type:luminance" maskUnits="userSpaceOnUse" x="0" y="0" width="66" height="64">
<path d="M52.6512 0H13.3489C6.39178 0 0.751953 5.59644 0.751953 12.5V51.5C0.751953 58.4036 6.39178 64 13.3489 64H52.6512C59.6083 64 65.2481 58.4036 65.2481 51.5V12.5C65.2481 5.59644 59.6083 0 52.6512 0Z" fill="white"/>
</mask>
<g mask="url(#mask0_2601_1740)">
<path d="M52.6512 0H13.3489C6.39178 0 0.751953 5.59644 0.751953 12.5V51.5C0.751953 58.4036 6.39178 64 13.3489 64H52.6512C59.6083 64 65.2481 58.4036 65.2481 51.5V12.5C65.2481 5.59644 59.6083 0 52.6512 0Z" fill="white"/>
<path d="M65.2481 0H0.751953V64H65.2481V0Z" fill="url(#paint0_linear_2601_1740)"/>
<path opacity="0.2" d="M30.7507 11.884L21.7755 32.2229L19.0061 31.0197L27.9814 10.6809L30.7507 11.884Z" fill="#1373D9"/>
<path opacity="0.2" d="M36.8899 11.884L27.9146 32.2229L25.1453 31.0197L34.1206 10.6809L36.8899 11.884Z" fill="#1373D9"/>
<path opacity="0.2" d="M45.855 29.2583L38.8544 44.4272L36.1057 43.1782L43.1058 28.0093L45.855 29.2583Z" fill="#1373D9"/>
<path d="M54.0151 27.9688C54.9604 27.9689 55.8074 28.5513 56.1389 29.4302C56.4493 30.2541 56.2463 31.1767 55.632 31.7964L55.5035 31.916L28.616 55.1335C25.9102 57.4695 21.9049 54.4965 23.3996 51.261L30.9001 35.0254L32.9722 35.9658L35.0242 36.8974L29.8461 48.1054L47.9552 32.4688H41.4934L43.5679 27.9688H54.0151ZM41.3492 8.375C44.503 8.37515 46.6148 11.5645 45.4063 14.4209L45.3462 14.5567L40.6042 24.8193L38.5424 23.8833L36.4807 22.9468L41.1342 12.875H26.7013C25.4605 12.8751 24.3429 13.6197 23.8729 14.7593L18.4272 27.9688H29.7502L27.6756 32.4688H15.0497C14.2942 32.4688 13.5882 32.0951 13.1671 31.4727C12.746 30.8503 12.665 30.0605 12.951 29.3667L19.6756 13.0556C20.8427 10.2247 23.619 8.3751 26.7013 8.375H41.3492Z" fill="#1373D9"/>
<path d="M41.8736 22.0725L32.1853 43.0432L28.0627 41.1682L37.7515 20.1975L41.8736 22.0725Z" fill="#1373D9"/>
</g>
<defs>
<linearGradient id="paint0_linear_2601_1740" x1="33" y1="-4.25" x2="41.0494" y2="156.848" gradientUnits="userSpaceOnUse">
<stop stop-color="white"/>
<stop offset="0.9" stop-color="#BEE1FE"/>
</linearGradient>
</defs>
</svg>
