<svg width="97" height="96" viewBox="0 0 97 96" fill="none" xmlns="http://www.w3.org/2000/svg">
    <g filter="url(#rqiqfhxnha)">
        <mask id="lcutw1w22b" style="mask-type:luminance" maskUnits="userSpaceOnUse" x="16" y="12" width="65" height="64">
            <path d="M67.9 12H28.596C21.64 12 16 17.596 16 24.5v39C16 70.404 21.64 76 28.597 76h39.302c6.957 0 12.597-5.596 12.597-12.5v-39c0-6.904-5.64-12.5-12.597-12.5z" fill="#fff"/>
        </mask>
        <g mask="url(#lcutw1w22b)">
            <path d="M67.9 12H28.596C21.64 12 16 17.596 16 24.5v39C16 70.404 21.64 76 28.597 76h39.302c6.957 0 12.597-5.596 12.597-12.5v-39c0-6.904-5.64-12.5-12.597-12.5z" fill="#fff"/>
            <path d="M80.496 12H16v64h64.496V12z" fill="url(#b50o7bzexc)"/>
            <path opacity=".2" d="m45.999 23.884-8.975 20.339-2.77-1.203 8.976-20.34 2.769 1.204zM52.138 23.884l-8.975 20.339-2.77-1.203 8.975-20.34 2.77 1.204zM61.103 41.258l-7 15.17-2.75-1.25 7-15.169 2.75 1.25z" fill="#1373D9"/>
            <path d="M69.263 39.969c.945 0 1.792.582 2.124 1.461.31.824.107 1.747-.507 2.366l-.128.12-26.888 23.218c-2.706 2.335-6.711-.638-5.216-3.873l7.5-16.236 2.072.94 2.052.932-5.178 11.208 18.11-15.636H56.74l2.075-4.5h10.447zM56.597 20.375c3.154 0 5.266 3.19 4.057 6.046l-.06.136-4.742 10.262-2.061-.936-2.062-.936 4.653-10.072H41.95c-1.24 0-2.358.745-2.828 1.884l-5.446 13.21h11.323l-2.074 4.5H30.298a2.273 2.273 0 0 1-1.883-.996 2.236 2.236 0 0 1-.216-2.106l6.725-16.311a7.592 7.592 0 0 1 7.025-4.681h14.648z" fill="#1373D9"/>
            <path d="m57.121 34.072-9.688 20.971-4.122-1.875 9.688-20.97 4.122 1.874z" fill="#1373D9"/>
        </g>
    </g>
    <defs>
        <linearGradient id="b50o7bzexc" x1="48.248" y1="7.75" x2="56.297" y2="168.848" gradientUnits="userSpaceOnUse">
            <stop stop-color="#fff"/>
            <stop offset=".9" stop-color="#BEE1FE"/>
        </linearGradient>
        <filter id="rqiqfhxnha" x="0" y="0" width="96.496" height="96" filterUnits="userSpaceOnUse" color-interpolation-filters="sRGB">
            <feFlood flood-opacity="0" result="BackgroundImageFix"/>
            <feColorMatrix in="SourceAlpha" values="0 0 0 0 0 0 0 0 0 0 0 0 0 0 0 0 0 0 127 0" result="hardAlpha"/>
            <feMorphology radius="10" operator="dilate" in="SourceAlpha" result="effect1_dropShadow_2463_1062"/>
            <feOffset dy="4"/>
            <feGaussianBlur stdDeviation="3"/>
            <feComposite in2="hardAlpha" operator="out"/>
            <feColorMatrix values="0 0 0 0 0.0980392 0 0 0 0 0.317647 0 0 0 0 0.560784 0 0 0 0.12 0"/>
            <feBlend in2="BackgroundImageFix" result="effect1_dropShadow_2463_1062"/>
            <feBlend in="SourceGraphic" in2="effect1_dropShadow_2463_1062" result="shape"/>
        </filter>
    </defs>
</svg>
